<?xml version="1.0" encoding="UTF-8" standalone="no"?>
<svg
   xmlns:dc="http://purl.org/dc/elements/1.1/"
   xmlns:cc="http://creativecommons.org/ns#"
   xmlns:rdf="http://www.w3.org/1999/02/22-rdf-syntax-ns#"
   xmlns:svg="http://www.w3.org/2000/svg"
   xmlns="http://www.w3.org/2000/svg"
   xmlns:sodipodi="http://sodipodi.sourceforge.net/DTD/sodipodi-0.dtd"
   xmlns:inkscape="http://www.inkscape.org/namespaces/inkscape"
   viewBox="0 0 599.21877 181.25"
   version="1.1"
   id="svg12"
   sodipodi:docname="reddit.svg"
   inkscape:version="0.92.5 (2060ec1f9f, 2020-04-08)"
   width="599.21875"
   height="181.25">
  <metadata
     id="metadata18">
    <rdf:RDF>
      <cc:Work
         rdf:about="">
        <dc:format>image/svg+xml</dc:format>
        <dc:type
           rdf:resource="http://purl.org/dc/dcmitype/StillImage" />
      </cc:Work>
    </rdf:RDF>
  </metadata>
  <defs
     id="defs16">
    <clipPath
       id="clipPath20">
      <path
         inkscape:connector-curvature="0"
         d="M 0,792 H 612 V 0 H 0 Z"
         id="path22" />
    </clipPath>
  </defs>
  <sodipodi:namedview
     pagecolor="#ffffff"
     bordercolor="#666666"
     borderopacity="1"
     objecttolerance="10"
     gridtolerance="10"
     guidetolerance="10"
     inkscape:pageopacity="0"
     inkscape:pageshadow="2"
     inkscape:window-width="1441"
     inkscape:window-height="831"
     id="namedview14"
     showgrid="false"
     inkscape:zoom="1.28"
     inkscape:cx="386.23585"
     inkscape:cy="73.993973"
     inkscape:window-x="184"
     inkscape:window-y="81"
     inkscape:window-maximized="0"
     inkscape:current-layer="svg12" />
  <style
     id="style2">.st0{fill:#ff4500}</style>
  <circle
     cx="495.39999"
     cy="63.693741"
     r="10.6"
     class="st0"
     id="circle4"
     inkscape:export-filename="C:\Users\suitedoalex\sites\reddit-logo-14.png"
     inkscape:export-xdpi="9.8641949"
     inkscape:export-ydpi="9.8641949"
     style="fill:#ff4500" />
  <path
     d="m 344,108.89374 c 5.2,0 8.2,-3.9 8,-7.7 -0.1,-1.999996 -0.3,-3.299996 -0.5,-4.299996 -3.2,-13.8 -14.4,-24 -27.7,-24 -15.8,0 -28.6,14.3 -28.6,31.899996 0,17.6 12.8,31.9 28.6,31.9 9.9,0 17,-3.6 22.1,-9.3 2.5,-2.8 2,-7.1 -1,-9.2 -2.5,-1.7 -5.6,-1.1 -7.9,0.8 -2.2,1.9 -6.4,5.7 -13.2,5.7 -8,0 -14.8,-6.9 -16.3,-16 H 344 Z M 323.7,84.993744 c 7.2,0 13.4,5.6 15.7,13.3 H 308 c 2.3,-7.8 8.5,-13.3 15.7,-13.3 z m -27.9,-5.8 a 6,6 0 0 0 -5,-5.9 23.1,23.1 0 0 0 -21.6,7.8 v -0.8 c 0,-3.7 -3,-6 -6,-6 a 6,6 0 0 0 -6,6 v 48.999996 c 0,3.2 2.4,6 5.6,6.2 a 6,6 0 0 0 6.4,-6 v -25.3 c 0,-11.199996 8.4,-20.399996 20,-19.099996 h 1.2 c 3,-0.2 5.4,-2.8 5.4,-5.9 z m 205.6,6.4 c 0,-3.3 -2.7,-6 -6,-6 -3.3,0 -6,2.7 -6,6 v 43.899996 c 0,3.3 2.7,6 6,6 3.3,0 6,-2.7 6,-6 z m -89.2,-33.2 a 6,6 0 0 0 -6,-6 6,6 0 0 0 -6,6 v 26.7 a 20.7,20.7 0 0 0 -15.3,-6.1 c -15.8,0 -28.6,14.3 -28.6,31.899996 0,17.6 12.8,31.9 28.6,31.9 a 21,21 0 0 0 15.4,-6.2 6,6 0 0 0 11.9,-1.1 z M 385,124.89374 c -9.2,0 -16.6,-8.9 -16.6,-20 0,-10.999996 7.4,-19.999996 16.6,-19.999996 9.2,0 16.6,8.9 16.6,19.999996 0,11.1 -7.5,20 -16.6,20 z m 89.8,-72.499996 a 6,6 0 0 0 -6,-6 6,6 0 0 0 -6,6 v 26.7 a 20.7,20.7 0 0 0 -15.3,-6.1 c -15.8,0 -28.6,14.3 -28.6,31.899996 0,17.6 12.8,31.9 28.6,31.9 a 21,21 0 0 0 15.4,-6.2 6,6 0 0 0 11.9,-1.1 z m -27.3,72.499996 c -9.2,0 -16.6,-8.9 -16.6,-20 0,-10.999996 7.4,-19.999996 16.6,-19.999996 9.2,0 16.6,8.9 16.6,19.999996 0,11.1 -7.4,20 -16.6,20 z m 84.3,4.7 V 84.993744 h 5.3 c 2.8,0 5.3,-2.1 5.5,-5 a 5.4,5.4 0 0 0 -5.3,-5.7 h -5.5 v -8.4 c 0,-3.2 -2.4,-6 -5.6,-6.2 a 6,6 0 0 0 -6.4,6 v 8.7 h -5 a 5.5,5.5 0 0 0 -5.5,5 5.4,5.4 0 0 0 5.3,5.7 h 5.1 v 44.599996 a 6,6 0 0 0 6,6 c 3.5,-0.2 6.1,-2.8 6.1,-6.1 z"
     id="path6"
     inkscape:export-filename="C:\Users\suitedoalex\sites\reddit-logo-14.png"
     inkscape:export-xdpi="9.8641949"
     inkscape:export-ydpi="9.8641949"
     inkscape:connector-curvature="0"
     style="fill:#222222" />
  <circle
     cx="139.8"
     cy="89.793747"
     r="83.800003"
     class="st0"
     id="circle8"
     inkscape:export-filename="C:\Users\suitedoalex\sites\reddit-logo-16.png"
     inkscape:export-xdpi="2004.7732"
     inkscape:export-ydpi="2004.7732"
     style="fill:#ff4500" />
  <path
     d="m 195.7,89.793744 a 12.2,12.2 0 0 0 -20.7,-8.8 c -8.4,-6 -19.9,-9.9 -32.7,-10.4 l 5.6,-26.2 18.2,3.9 a 8.7,8.7 0 1 0 0.9,-4.2 l -20.3,-4.3 c -0.6,-0.1 -1.2,0 -1.6,0.3 a 2,2 0 0 0 -0.9,1.4 l -6.2,29.2 c -13,0.4 -24.7,4.3 -33.2,10.4 A 12.2,12.2 0 1 0 91.3,100.99374 c -0.2,1.2 -0.3,2.4 -0.3,3.7 0,18.8 21.9,34.1 48.9,34.1 27,0 48.9,-15.2 48.9,-34.1 a 23,23 0 0 0 -0.3,-3.7 c 4.2,-1.899996 7.2,-6.199996 7.2,-11.199996 z m -83.8,8.7 a 8.7,8.7 0 1 1 17.4,0 8.7,8.7 0 0 1 -17.4,0 z m 48.7,23.099996 c -6,6 -17.4,6.4 -20.7,6.4 -3.4,0 -14.8,-0.5 -20.7,-6.4 -0.9,-0.9 -0.9,-2.3 0,-3.2 0.9,-0.9 2.3,-0.9 3.2,0 3.8,3.8 11.8,5.1 17.5,5.1 5.7,0 13.8,-1.3 17.5,-5.1 0.9,-0.9 2.3,-0.9 3.2,0 0.8,0.9 0.8,2.3 0,3.2 z m -1.6,-14.3 a 8.7,8.7 0 1 1 0,-17.399996 8.7,8.7 0 0 1 0,17.399996 z"
     id="path10"
     inkscape:export-filename="C:\Users\suitedoalex\sites\reddit-logo-16.png"
     inkscape:export-xdpi="2004.7732"
     inkscape:export-ydpi="2004.7732"
     inkscape:connector-curvature="0"
     style="fill:#ffffff" />
  <rect
     id="rect3797"
     width="599.21875"
     height="181.25"
     x="0"
     y="0"
     style="fill:none" />
</svg>
